<svg xmlns="http://www.w3.org/2000/svg" width="512" height="512" viewBox="0 0 512 512" role="img" aria-labelledby="title desc">
  <title id="title">CommutingValue mark</title>
  <desc id="desc">Minimal commuting icon with clock and route in rounded square</desc>
  <defs>
    <linearGradient id="g" x1="0" x2="1" y1="0" y2="1">
      <stop offset="0" stop-color="#163a59"/>
      <stop offset="1" stop-color="#2f7568"/>
    </linearGradient>
  </defs>

  <rect x="40" y="40" width="432" height="432" rx="112" fill="url(#g)"/>

  <!-- tasteful money stack bars -->
  <rect x="328" y="126" width="30" height="88" rx="11" fill="#f2d78a" opacity="0.9"/>
  <rect x="365" y="102" width="30" height="112" rx="11" fill="#f6de98" opacity="0.92"/>
  <rect x="402" y="138" width="30" height="76" rx="11" fill="#e9cc79" opacity="0.88"/>

  <path d="M90 352c52-39 98-58 144-58 36 0 72 13 109 42 29 22 52 33 79 33 26 0 48-11 68-36"
    fill="none" stroke="#cfece3" stroke-width="29" stroke-linecap="round"/>

  <circle cx="188" cy="172" r="70" fill="none" stroke="#eaf7ff" stroke-width="18"/>
  <path d="M188 172v-38M188 172l30 13" stroke="#eaf7ff" stroke-width="18" stroke-linecap="round"/>

  <!-- minimal stacked coins -->
  <ellipse cx="322" cy="322" rx="42" ry="14" fill="#f6de98" opacity="0.94"/>
  <ellipse cx="322" cy="307" rx="42" ry="14" fill="#efd487" opacity="0.94"/>
  <ellipse cx="322" cy="292" rx="42" ry="14" fill="#e7c977" opacity="0.94"/>

  <path d="M106 252l56 56 124-124" fill="none" stroke="#f7fcff" stroke-width="20" stroke-linecap="round" stroke-linejoin="round"/>
</svg>
